# xmcd CD database file
#
# Track frame offsets:
#	150
#	15970
#	37985
#	59652
#	78260
#	97175
#	118622
#	137532
#	154927
#	173297
#	193125
#
# Disc length: 2804 seconds
#
# Revision: 50
# Processed by: cddbd v1.5.2PL0 Copyright (c) Steve Scherf et al.
# Submitted via: CDex 1.70beta3
#
DISCID=840af20b
DTITLE=Mariah Carey - Mariah Carey
DYEAR=1990
DGENRE=R&B/Pop
TTITLE0=Vision Of Love
TTITLE1=There's Got To Be A Way
TTITLE2=I Don't Wanna Cry
TTITLE3=Someday
TTITLE4=Vanishing
TTITLE5=All In Your Mind
TTITLE6=Alone In Love
TTITLE7=You Need Me
TTITLE8=Sent From Up Above
TTITLE9=Prisoner
TTITLE10=Love Takes Time
EXTD=YEAR: 1990
EXTT0=
EXTT1=
EXTT2=
EXTT3=
EXTT4=
EXTT5=
EXTT6=
EXTT7=
EXTT8=
EXTT9=
EXTT10=
PLAYORDER=
